<svg xmlns="http://www.w3.org/2000/svg" viewBox="0 0 24 24" width="100%"
    height="100%" color="currentColor">
    <defs>
        <style>.cls-637b8170f95e86b59c57a04a-1{fill:none;stroke:currentColor;stroke-miterlimit:10;}</style>
    </defs>
    <g id="leg">
        <path class="cls-637b8170f95e86b59c57a04a-1"
            d="M2.43.5A80.11,80.11,0,0,0,3.54,13.8l.06.38A3.55,3.55,0,0,1,3,16.65a3.71,3.71,0,0,0-.57,2.47,4.09,4.09,0,0,0,4,3.38H9.05l1-.25a12.28,12.28,0,0,1,5.78,0l1,.25h2.79A1.92,1.92,0,0,0,21.47,20a2,2,0,0,0-1.92-1.31h0a7.56,7.56,0,0,1-3.43-.81L11.79,15.7a2.89,2.89,0,0,1-1.58-2.76L11,.5"></path>
    </g>
</svg>